<svg version="1.1" id="Layer_1" xmlns="http://www.w3.org/2000/svg" xmlns:xlink="http://www.w3.org/1999/xlink" x="0px" y="0px"
	 width="100%" viewBox="0 0 244 207" enable-background="new 0 0 244 207" xml:space="preserve">
<path fill="#000000" opacity="1.000000" stroke="none" 
	d="
M140.000000,208.000000 
	C93.333336,208.000000 47.166672,208.000000 1.000006,208.000000 
	C1.000004,139.000000 1.000004,70.000015 1.000002,1.000015 
	C82.333321,1.000010 163.666641,1.000010 244.999969,1.000005 
	C244.999985,69.999985 244.999985,138.999969 245.000000,207.999969 
	C210.166672,208.000000 175.333328,208.000000 140.000000,208.000000 
M37.136471,37.015564 
	C34.807354,37.013699 32.476105,36.947731 30.149622,37.025120 
	C26.730196,37.138855 24.254574,39.051422 24.146688,42.310356 
	C23.846027,51.392559 24.042213,60.491219 24.042213,69.968300 
	C35.202019,69.968300 45.826172,70.256638 56.426056,69.873558 
	C64.356110,69.586967 69.729675,73.100914 74.135124,79.210411 
	C77.615440,84.036926 81.447220,88.610016 85.837181,94.206161 
	C92.083786,86.353554 97.925156,79.210716 103.453735,71.833458 
	C104.237251,70.787933 104.152985,68.140862 103.360985,67.016495 
	C97.084717,58.106289 90.584053,49.352036 84.031876,40.640461 
	C82.986855,39.251034 81.340164,38.314117 79.048363,37.022884 
	C65.377434,37.070267 51.706509,37.117653 37.136471,37.015564 
M80.725197,167.941071 
	C87.457458,159.389603 94.375977,150.977188 100.885078,142.259109 
	C116.760132,120.996559 132.670944,99.753067 148.069199,78.146866 
	C152.656006,71.710815 157.639206,68.531143 165.495987,69.902084 
	C167.980927,70.335670 170.605362,69.969810 173.975433,69.969810 
	C173.975433,77.400200 173.975433,85.042137 173.975433,94.268303 
	C189.776123,79.971542 204.331070,66.801949 219.211349,53.337997 
	C204.197250,39.298378 189.574173,25.624401 173.894257,10.962177 
	C173.894257,20.533373 173.894257,28.711037 173.894257,37.022476 
	C165.245575,37.022476 157.238983,36.709332 149.277145,37.169945 
	C145.887497,37.366043 141.805267,38.304043 139.418640,40.444534 
	C134.634720,44.735111 130.479416,49.846779 126.630859,55.039196 
	C110.193443,77.216255 93.674591,99.343796 77.792908,121.916786 
	C71.117149,131.405182 63.369255,136.662567 51.497284,135.131332 
	C47.402363,134.603149 43.181377,135.053650 39.017975,135.054825 
	C34.096657,135.056213 29.175339,135.055161 24.017740,135.055161 
	C24.017740,143.617050 23.888540,151.434158 24.058628,159.244751 
	C24.194647,165.490829 26.991793,167.962860 33.390999,167.967468 
	C48.878841,167.978653 64.366699,167.967407 80.725197,167.941071 
M185.988007,183.502686 
	C194.713791,175.106750 203.446289,166.717773 212.160400,158.309738 
	C214.239014,156.304138 217.393631,154.474686 217.892548,152.108566 
	C218.213043,150.588715 214.679092,148.133789 212.707352,146.273376 
	C202.485519,136.628571 192.247620,126.999962 181.924088,117.464493 
	C179.726288,115.434464 177.149139,113.815132 174.005707,111.448700 
	C174.005707,119.798256 174.005707,127.195000 174.005707,135.035431 
	C167.767548,135.035431 161.967773,135.224045 156.196426,134.902542 
	C154.757309,134.822342 153.128830,133.335510 152.067154,132.087173 
	C146.382324,125.402885 140.849350,118.589447 134.816345,111.278252 
	C128.366180,119.660469 122.270157,127.481438 116.376778,135.452225 
	C115.951424,136.027512 116.720970,137.909027 117.413254,138.819565 
	C122.056557,144.926712 127.033165,150.788849 131.508804,157.012939 
	C137.096741,164.783890 143.886749,169.172745 153.969330,168.110672 
	C160.495712,167.423203 167.153305,167.981369 174.222366,167.981369 
	C174.222366,176.650345 174.222366,184.690460 174.222366,194.082809 
	C178.604248,190.159775 182.043640,187.080536 185.988007,183.502686 
z"/>
<path fill="#3BDC83" opacity="1.000000" stroke="none" 
	d="
M80.289871,167.953125 
	C64.366699,167.967407 48.878841,167.978653 33.390999,167.967468 
	C26.991793,167.962860 24.194647,165.490829 24.058628,159.244751 
	C23.888540,151.434158 24.017740,143.617050 24.017740,135.055161 
	C29.175339,135.055161 34.096657,135.056213 39.017975,135.054825 
	C43.181377,135.053650 47.402363,134.603149 51.497284,135.131332 
	C63.369255,136.662567 71.117149,131.405182 77.792908,121.916786 
	C93.674591,99.343796 110.193443,77.216255 126.630859,55.039196 
	C130.479416,49.846779 134.634720,44.735111 139.418640,40.444534 
	C141.805267,38.304043 145.887497,37.366043 149.277145,37.169945 
	C157.238983,36.709332 165.245575,37.022476 173.894257,37.022476 
	C173.894257,28.711037 173.894257,20.533373 173.894257,10.962177 
	C189.574173,25.624401 204.197250,39.298378 219.211349,53.337997 
	C204.331070,66.801949 189.776123,79.971542 173.975433,94.268303 
	C173.975433,85.042137 173.975433,77.400200 173.975433,69.969810 
	C170.605362,69.969810 167.980927,70.335670 165.495987,69.902084 
	C157.639206,68.531143 152.656006,71.710815 148.069199,78.146866 
	C132.670944,99.753067 116.760132,120.996559 100.885078,142.259109 
	C94.375977,150.977188 87.457458,159.389603 80.289871,167.953125 
z"/>
<path fill="#4085F5" opacity="1.000000" stroke="none" 
	d="
M185.735519,183.751984 
	C182.043640,187.080536 178.604248,190.159775 174.222366,194.082809 
	C174.222366,184.690460 174.222366,176.650345 174.222366,167.981369 
	C167.153305,167.981369 160.495712,167.423203 153.969330,168.110672 
	C143.886749,169.172745 137.096741,164.783890 131.508804,157.012939 
	C127.033165,150.788849 122.056557,144.926712 117.413254,138.819565 
	C116.720970,137.909027 115.951424,136.027512 116.376778,135.452225 
	C122.270157,127.481438 128.366180,119.660469 134.816345,111.278252 
	C140.849350,118.589447 146.382324,125.402885 152.067154,132.087173 
	C153.128830,133.335510 154.757309,134.822342 156.196426,134.902542 
	C161.967773,135.224045 167.767548,135.035431 174.005707,135.035431 
	C174.005707,127.195000 174.005707,119.798256 174.005707,111.448700 
	C177.149139,113.815132 179.726288,115.434464 181.924088,117.464493 
	C192.247620,126.999962 202.485519,136.628571 212.707352,146.273376 
	C214.679092,148.133789 218.213043,150.588715 217.892548,152.108566 
	C217.393631,154.474686 214.239014,156.304138 212.160400,158.309738 
	C203.446289,166.717773 194.713791,175.106750 185.735519,183.751984 
z"/>
<path fill="#4085F5" opacity="1.000000" stroke="none" 
	d="
M79.971634,37.167999 
	C81.340164,38.314117 82.986855,39.251034 84.031876,40.640461 
	C90.584053,49.352036 97.084717,58.106289 103.360985,67.016495 
	C104.152985,68.140862 104.237251,70.787933 103.453735,71.833458 
	C97.925156,79.210716 92.083786,86.353554 85.837181,94.206161 
	C81.447220,88.610016 77.615440,84.036926 74.135124,79.210411 
	C69.729675,73.100914 64.356110,69.586967 56.426056,69.873558 
	C45.826172,70.256638 35.202019,69.968300 24.042213,69.968300 
	C24.042213,60.491219 23.846027,51.392559 24.146688,42.310356 
	C24.254574,39.051422 26.730196,37.138855 30.149622,37.025120 
	C32.476105,36.947731 34.807354,37.013699 37.953270,37.268616 
	C49.225910,37.682632 59.681465,37.920570 70.137764,37.959202 
	C73.414703,37.971313 76.693619,37.446857 79.971634,37.167999 
z"/>
<path fill="#5590F6" opacity="1.000000" stroke="none" 
	d="
M79.509995,37.095444 
	C76.693619,37.446857 73.414703,37.971313 70.137764,37.959202 
	C59.681465,37.920570 49.225910,37.682632 38.402824,37.343349 
	C51.706509,37.117653 65.377434,37.070267 79.509995,37.095444 
z"/>
</svg>