<?xml version="1.0" encoding="UTF-8"?>
<svg version="1.1" xmlns="http://www.w3.org/2000/svg" width="960" height="960">
<path d="M0 0 C1.27417786 -0.00705963 2.54835571 -0.01411926 3.86114502 -0.02139282 C7.95170669 -0.04092196 12.04220858 -0.04608484 16.1328125 -0.046875 C17.17844486 -0.04731686 17.17844486 -0.04731686 18.24520111 -0.04776764 C38.72820107 -0.04916661 58.95780909 0.11844089 79.2578125 3.203125 C80.69446418 3.41478523 82.1311523 3.62619815 83.56787109 3.83740234 C174.68429563 17.38760931 260.56100798 54.24412046 330.2578125 115.203125 C330.98742187 115.83347656 331.71703125 116.46382813 332.46875 117.11328125 C334.40989607 118.7973981 336.33432421 120.49887791 338.2578125 122.203125 C338.95535645 122.81583252 339.65290039 123.42854004 340.37158203 124.05981445 C346.91138594 129.86346242 353.14082232 135.93170245 359.30883789 142.1237793 C360.95021046 143.77053904 362.59690069 145.41184595 364.24414062 147.05273438 C369.79199851 152.59683305 375.19301891 158.20899566 380.2578125 164.203125 C381.1034375 165.16734375 381.9490625 166.1315625 382.8203125 167.125 C391.13628655 176.77366219 398.73424841 186.92966671 406.2578125 197.203125 C406.79583496 197.9357959 407.33385742 198.6684668 407.88818359 199.42333984 C419.91793845 215.88450646 430.55631667 233.27914177 440.2578125 251.203125 C440.69915527 252.00814453 441.14049805 252.81316406 441.59521484 253.64257812 C476.0492292 316.71574805 497.19430778 390.80641491 497.4609375 462.9453125 C497.46799713 464.21949036 497.47505676 465.49366821 497.48233032 466.80645752 C497.50185946 470.89701919 497.50702234 474.98752108 497.5078125 479.078125 C497.50825436 480.12375736 497.50825436 480.12375736 497.50870514 481.19051361 C497.51010411 501.67351357 497.34249661 521.90312159 494.2578125 542.203125 C494.04615227 543.63977668 493.83473935 545.0764648 493.62353516 546.51318359 C482.4561715 621.60651982 455.95444602 694.32830771 411.2578125 756.203125 C410.72865234 756.94191895 410.19949219 757.68071289 409.65429688 758.44189453 C399.09928069 773.14526339 387.97064202 787.35265891 375.63671875 800.61328125 C373.78290543 802.63147211 371.99836966 804.67590716 370.21875 806.7578125 C365.68340242 811.95734507 360.80108876 816.80976606 355.9152832 821.67602539 C354.32322284 823.26272446 352.7365826 824.85470242 351.15039062 826.44726562 C345.69155373 831.90993814 340.14776854 837.20306 334.2578125 842.203125 C333.20915202 843.12818822 332.16220281 844.05519591 331.1171875 844.984375 C321.26553321 853.64030983 310.84236041 861.47037238 300.2578125 869.203125 C299.5265918 869.73969727 298.79537109 870.27626953 298.04199219 870.82910156 C223.20870763 925.52164132 127.75334146 960.06163777 34.515625 960.40625 C33.24144714 960.41330963 31.96726929 960.42036926 30.65447998 960.42764282 C26.56391831 960.44717196 22.47341642 960.45233484 18.3828125 960.453125 C17.33718014 960.45356686 17.33718014 960.45356686 16.27042389 960.45401764 C-4.21257607 960.45541661 -24.44218409 960.28780911 -44.7421875 957.203125 C-46.17883918 956.99146477 -47.6155273 956.78005185 -49.05224609 956.56884766 C-124.06215054 945.4138914 -196.97894528 918.90865921 -258.7421875 874.203125 C-259.51288574 873.64737793 -260.28358398 873.09163086 -261.07763672 872.51904297 C-270.52862091 865.68410613 -279.85431983 858.76172214 -288.7421875 851.203125 C-289.27618164 850.75259766 -289.81017578 850.30207031 -290.36035156 849.83789062 C-292.13687237 848.33860715 -293.90910527 846.83441592 -295.6796875 845.328125 C-296.20473877 844.88259277 -296.72979004 844.43706055 -297.27075195 843.97802734 C-307.07221526 835.57508887 -316.40975601 826.70369825 -325.5168457 817.55883789 C-327.06803477 816.00223111 -328.62458142 814.45112329 -330.18164062 812.90039062 C-335.57871356 807.50717099 -340.80866996 802.02823213 -345.7421875 796.203125 C-346.5878125 795.23890625 -347.4334375 794.2746875 -348.3046875 793.28125 C-356.62066155 783.63258781 -364.21862341 773.47658329 -371.7421875 763.203125 C-372.54922119 762.10411865 -372.54922119 762.10411865 -373.37255859 760.98291016 C-432.6394992 679.88375262 -463.33880081 580.8384236 -463.0546875 480.765625 C-463.05246494 479.38121549 -463.05028843 477.9968059 -463.04815674 476.61239624 C-463.00562434 456.67330574 -462.70316932 436.96132996 -459.7421875 417.203125 C-459.6403717 416.51720276 -459.53855591 415.83128052 -459.43365479 415.12457275 C-450.45684486 355.0285559 -431.91724046 298.63446166 -402.7421875 245.203125 C-402.12126221 244.06520508 -402.12126221 244.06520508 -401.48779297 242.90429688 C-386.56667189 215.89876975 -368.02659425 190.39507741 -347.7421875 167.203125 C-347.11183594 166.47351563 -346.48148437 165.74390625 -345.83203125 164.9921875 C-344.1479144 163.05104143 -342.44643459 161.12661329 -340.7421875 159.203125 C-340.12947998 158.50558105 -339.51677246 157.80803711 -338.88549805 157.08935547 C-333.08185008 150.54955156 -327.01361005 144.32011518 -320.8215332 138.15209961 C-319.17477346 136.51072704 -317.53346655 134.86403681 -315.89257812 133.21679688 C-310.34847945 127.66893899 -304.73631684 122.26791859 -298.7421875 117.203125 C-297.77796875 116.3575 -296.81375 115.511875 -295.8203125 114.640625 C-286.17165031 106.32465095 -276.01564579 98.72668909 -265.7421875 91.203125 C-264.64318115 90.39609131 -264.64318115 90.39609131 -263.52197266 89.57275391 C-188.6876705 34.8841446 -93.2364522 0.34460755 0 0 Z " fill="#BDBDBD" transform="translate(462.7421875,-0.203125)"/>
<path d="M0 0 C1.27417786 -0.00705963 2.54835571 -0.01411926 3.86114502 -0.02139282 C7.95170669 -0.04092196 12.04220858 -0.04608484 16.1328125 -0.046875 C17.17844486 -0.04731686 17.17844486 -0.04731686 18.24520111 -0.04776764 C38.72820107 -0.04916661 58.95780909 0.11844089 79.2578125 3.203125 C80.69446418 3.41478523 82.1311523 3.62619815 83.56787109 3.83740234 C174.68429563 17.38760931 260.56100798 54.24412046 330.2578125 115.203125 C330.98742187 115.83347656 331.71703125 116.46382813 332.46875 117.11328125 C334.40989607 118.7973981 336.33432421 120.49887791 338.2578125 122.203125 C338.95535645 122.81583252 339.65290039 123.42854004 340.37158203 124.05981445 C346.91138594 129.86346242 353.14082232 135.93170245 359.30883789 142.1237793 C360.95021046 143.77053904 362.59690069 145.41184595 364.24414062 147.05273438 C369.79199851 152.59683305 375.19301891 158.20899566 380.2578125 164.203125 C381.1034375 165.16734375 381.9490625 166.1315625 382.8203125 167.125 C391.13628655 176.77366219 398.73424841 186.92966671 406.2578125 197.203125 C406.79583496 197.9357959 407.33385742 198.6684668 407.88818359 199.42333984 C419.91793845 215.88450646 430.55631667 233.27914177 440.2578125 251.203125 C440.69915527 252.00814453 441.14049805 252.81316406 441.59521484 253.64257812 C476.0492292 316.71574805 497.19430778 390.80641491 497.4609375 462.9453125 C497.46799713 464.21949036 497.47505676 465.49366821 497.48233032 466.80645752 C497.50185946 470.89701919 497.50702234 474.98752108 497.5078125 479.078125 C497.50825436 480.12375736 497.50825436 480.12375736 497.50870514 481.19051361 C497.51010411 501.67351357 497.34249661 521.90312159 494.2578125 542.203125 C494.04615227 543.63977668 493.83473935 545.0764648 493.62353516 546.51318359 C482.4561715 621.60651982 455.95444602 694.32830771 411.2578125 756.203125 C410.72865234 756.94191895 410.19949219 757.68071289 409.65429688 758.44189453 C399.09928069 773.14526339 387.97064202 787.35265891 375.63671875 800.61328125 C373.78290543 802.63147211 371.99836966 804.67590716 370.21875 806.7578125 C365.68340242 811.95734507 360.80108876 816.80976606 355.9152832 821.67602539 C354.32322284 823.26272446 352.7365826 824.85470242 351.15039062 826.44726562 C345.69155373 831.90993814 340.14776854 837.20306 334.2578125 842.203125 C333.20915202 843.12818822 332.16220281 844.05519591 331.1171875 844.984375 C321.26553321 853.64030983 310.84236041 861.47037238 300.2578125 869.203125 C299.5265918 869.73969727 298.79537109 870.27626953 298.04199219 870.82910156 C223.20870763 925.52164132 127.75334146 960.06163777 34.515625 960.40625 C33.24144714 960.41330963 31.96726929 960.42036926 30.65447998 960.42764282 C26.56391831 960.44717196 22.47341642 960.45233484 18.3828125 960.453125 C17.33718014 960.45356686 17.33718014 960.45356686 16.27042389 960.45401764 C-4.21257607 960.45541661 -24.44218409 960.28780911 -44.7421875 957.203125 C-46.17883918 956.99146477 -47.6155273 956.78005185 -49.05224609 956.56884766 C-124.06215054 945.4138914 -196.97894528 918.90865921 -258.7421875 874.203125 C-259.51288574 873.64737793 -260.28358398 873.09163086 -261.07763672 872.51904297 C-270.52862091 865.68410613 -279.85431983 858.76172214 -288.7421875 851.203125 C-289.27618164 850.75259766 -289.81017578 850.30207031 -290.36035156 849.83789062 C-292.13687237 848.33860715 -293.90910527 846.83441592 -295.6796875 845.328125 C-296.20473877 844.88259277 -296.72979004 844.43706055 -297.27075195 843.97802734 C-307.07221526 835.57508887 -316.40975601 826.70369825 -325.5168457 817.55883789 C-327.06803477 816.00223111 -328.62458142 814.45112329 -330.18164062 812.90039062 C-335.57871356 807.50717099 -340.80866996 802.02823213 -345.7421875 796.203125 C-346.5878125 795.23890625 -347.4334375 794.2746875 -348.3046875 793.28125 C-356.62066155 783.63258781 -364.21862341 773.47658329 -371.7421875 763.203125 C-372.54922119 762.10411865 -372.54922119 762.10411865 -373.37255859 760.98291016 C-432.6394992 679.88375262 -463.33880081 580.8384236 -463.0546875 480.765625 C-463.05246494 479.38121549 -463.05028843 477.9968059 -463.04815674 476.61239624 C-463.00562434 456.67330574 -462.70316932 436.96132996 -459.7421875 417.203125 C-459.6403717 416.51720276 -459.53855591 415.83128052 -459.43365479 415.12457275 C-450.45684486 355.0285559 -431.91724046 298.63446166 -402.7421875 245.203125 C-402.12126221 244.06520508 -402.12126221 244.06520508 -401.48779297 242.90429688 C-386.56667189 215.89876975 -368.02659425 190.39507741 -347.7421875 167.203125 C-347.11183594 166.47351563 -346.48148437 165.74390625 -345.83203125 164.9921875 C-344.1479144 163.05104143 -342.44643459 161.12661329 -340.7421875 159.203125 C-340.12947998 158.50558105 -339.51677246 157.80803711 -338.88549805 157.08935547 C-333.08185008 150.54955156 -327.01361005 144.32011518 -320.8215332 138.15209961 C-319.17477346 136.51072704 -317.53346655 134.86403681 -315.89257812 133.21679688 C-310.34847945 127.66893899 -304.73631684 122.26791859 -298.7421875 117.203125 C-297.77796875 116.3575 -296.81375 115.511875 -295.8203125 114.640625 C-286.17165031 106.32465095 -276.01564579 98.72668909 -265.7421875 91.203125 C-264.64318115 90.39609131 -264.64318115 90.39609131 -263.52197266 89.57275391 C-188.6876705 34.8841446 -93.2364522 0.34460755 0 0 Z M-318.7421875 144.203125 C-318.7421875 365.963125 -318.7421875 587.723125 -318.7421875 816.203125 C-96.9821875 816.203125 124.7778125 816.203125 353.2578125 816.203125 C353.2578125 594.443125 353.2578125 372.683125 353.2578125 144.203125 C131.4978125 144.203125 -90.2621875 144.203125 -318.7421875 144.203125 Z " fill="#747474" transform="translate(462.7421875,-0.203125)"/>
<path d="M0 0 C221.76 0 443.52 0 672 0 C661.66241748 21.82378532 661.66241748 21.82378532 656.80130672 31.52043438 C656.2405123 32.64317706 655.67971788 33.76591975 655.10192969 34.92268494 C653.5728673 37.98381929 652.04137794 41.0437333 650.50942274 44.10342072 C648.83285479 47.45307217 647.15865303 50.80390614 645.4841314 54.15458089 C642.55831812 60.00826643 639.63104065 65.86121782 636.70276642 71.71367264 C632.34863096 80.41587363 627.99681892 89.11923506 623.64546112 97.82282523 C616.32341969 112.46821783 608.99952614 127.11268347 601.67455864 141.75661278 C594.42703888 156.24572539 587.18035362 170.73525487 579.93477058 185.22533607 C579.25777499 186.57922415 579.25777499 186.57922415 578.56710273 187.96046349 C576.27481695 192.54469668 573.98254597 197.12893727 571.69028068 201.7131807 C555.47472775 234.14218889 539.25732218 266.57027027 523.03881836 298.99780273 C507.2875506 330.49114669 491.53712747 361.98491283 475.7878418 393.47924805 C475.30196331 394.4508735 474.81608481 395.42249896 474.31548273 396.42356761 C469.43587535 406.1814638 464.55628508 415.93936853 459.67670734 425.69727954 C449.73737525 445.57340784 439.79792901 465.44947907 429.8584137 485.32551575 C429.17298303 486.69617115 429.17298303 486.69617115 428.47370527 488.09451656 C397.98438315 549.06396773 367.49240064 610.03208843 337 671 C336.34 671 335.68 671 335 671 C303.06092746 607.13898525 271.12234674 543.27772454 239.18640137 479.41514587 C238.71413929 478.47075978 238.24187721 477.52637368 237.75530417 476.55336982 C227.49309276 456.03193955 217.23097027 435.51046481 206.96893945 414.98894424 C201.93682905 404.92597082 196.90469899 394.86300724 191.87255859 384.80004883 C191.37178629 383.79863498 190.87101399 382.79722114 190.35506677 381.76546142 C174.10805029 349.27569385 157.85973438 316.78657634 141.61074828 284.29779379 C124.92021445 250.92614839 108.23098418 217.5538514 91.54340637 184.18072773 C89.18927471 179.47275258 86.83512806 174.76478492 84.48097229 170.05682182 C83.78593917 168.66685672 83.78593917 168.66685672 83.07686498 167.24881152 C75.60209956 152.30046485 68.1259502 137.35281073 60.64928986 122.40541176 C53.14244013 107.39758468 45.63703267 92.38903706 38.13311994 77.37974126 C33.6686101 68.44995792 29.20297243 59.52074065 24.73575658 50.59231071 C21.75763372 44.63979481 18.78094314 38.6865642 15.80545061 32.73273304 C14.1062702 29.33285198 12.4064363 25.93330175 10.70486635 22.53461588 C8.87837329 18.88637487 7.05492659 15.23662019 5.23181915 11.58668613 C4.69436343 10.5144017 4.15690771 9.44211727 3.60316545 8.33733937 C3.12297069 7.37470255 2.64277592 6.41206574 2.1480298 5.4202581 C1.52098769 4.16640786 1.52098769 4.16640786 0.88127807 2.8872273 C0 1 0 1 0 0 Z " fill="#FEFEFE" transform="translate(144,144)"/>
</svg>
