<?xml version="1.0" encoding="UTF-8"?>
<svg version="1.1" xmlns="http://www.w3.org/2000/svg" width="165" height="155">
<path d="M0 0 C2.84743378 2.62944842 3.2279508 4.82918251 3.3984375 8.5546875 C3.40639013 10.32812438 3.39802994 12.10169483 3.375 13.875 C3.38660156 14.76058594 3.39820313 15.64617188 3.41015625 16.55859375 C3.39104743 20.83260076 3.28019147 23.45624944 1.2890625 27.3203125 C0.86367187 28.20460937 0.43828125 29.08890625 0 30 C0.96747634 31.68575423 1.97429141 33.34903069 3 35 C3.46926017 38.35558267 3.41890437 41.67942448 3.375 45.0625 C3.38660156 45.96033203 3.39820313 46.85816406 3.41015625 47.78320312 C3.38088572 54.34468124 3.38088572 54.34468124 1.4765625 57.62109375 C0.98929687 58.07613281 0.50203125 58.53117187 0 59 C0.4640625 59.928125 0.4640625 59.928125 0.9375 60.875 C3.33496653 65.66993305 3.21988242 69.47039493 3.25 74.8125 C3.270625 75.71548828 3.29125 76.61847656 3.3125 77.54882812 C3.36337828 86.20449603 3.36337828 86.20449603 0 90 C-13.60987262 99.24363806 -30.027238 100.23407358 -45.9375 100.25 C-46.63152924 100.25100708 -47.32555847 100.25201416 -48.0406189 100.25305176 C-63.93950855 100.23741886 -81.02486331 99.38010935 -94 89 C-96.76527725 84.53662054 -96.33070241 80.09667454 -96.3125 75 C-96.32861328 74.09765625 -96.34472656 73.1953125 -96.36132812 72.265625 C-96.36197266 71.39421875 -96.36261719 70.5228125 -96.36328125 69.625 C-96.36626221 68.83351563 -96.36924316 68.04203125 -96.37231445 67.2265625 C-95.91390169 64.48510388 -94.79587402 63.0799017 -93 61 C-93.309375 60.401875 -93.61875 59.80375 -93.9375 59.1875 C-96.31395282 54.29480302 -96.21785621 50.0113157 -96.25 44.6875 C-96.270625 43.84509766 -96.29125 43.00269531 -96.3125 42.13476562 C-96.33869826 37.94631817 -96.25953189 35.50180134 -94.296875 31.70703125 C-93.86890625 30.81371094 -93.4409375 29.92039063 -93 29 C-93.96053387 27.31028036 -94.96881413 25.64755379 -96 24 C-96.51934048 20.68771207 -96.50975223 17.40995195 -96.5 14.0625 C-96.52835938 13.18142578 -96.55671875 12.30035156 -96.5859375 11.39257812 C-96.59873868 7.12018594 -96.47543546 3.97726859 -93.77734375 0.5390625 C-74.04023964 -17.50470357 -20.76075391 -16.60860313 0 0 Z " fill="#3ED884" transform="translate(132,34)"/>
<path d="M0 0 C2.80747428 2.7138918 2.98723568 3.74471357 3.1875 7.75 C3.0946875 9.35875 3.0946875 9.35875 3 11 C2.01 11 1.02 11 0 11 C-0.9590625 11.99 -0.9590625 11.99 -1.9375 13 C-4 15 -4 15 -8 15 C-8 15.66 -8 16.32 -8 17 C-12.34243417 18.58869543 -16.4348582 19.34783689 -21 20 C-21.87076172 20.33410889 -22.74152344 20.66821777 -23.63867188 21.01245117 C-27.92892803 22.27291647 -31.8341072 22.30558464 -36.28125 22.30078125 C-37.61706116 22.30720894 -37.61706116 22.30720894 -38.9798584 22.31376648 C-40.86254022 22.31949432 -42.74524417 22.32002146 -44.62792969 22.31567383 C-47.46329162 22.31254057 -50.29758138 22.33589894 -53.1328125 22.36132812 C-63.50822961 22.3958445 -72.94634608 21.81242669 -83 19 C-83 18.34 -83 17.68 -83 17 C-84.65 16.67 -86.3 16.34 -88 16 C-88 15.34 -88 14.68 -88 14 C-88.639375 13.87625 -89.27875 13.7525 -89.9375 13.625 C-90.9584375 13.315625 -90.9584375 13.315625 -92 13 C-92.33 12.34 -92.66 11.68 -93 11 C-93.99 11 -94.98 11 -96 11 C-96.41784335 6.82156646 -96.31737376 4.54719613 -94.1875 0.875 C-75.77654852 -18.41021453 -20.00946528 -16.00757223 0 0 Z " fill="#229D5C" transform="translate(132,34)"/>
<path d="M0 0 C3 1 3 1 4 3 C4.99 3.33 5.98 3.66 7 4 C7 4.66 7 5.32 7 6 C8.65 6.33 10.3 6.66 12 7 C12 7.66 12 8.32 12 9 C22.92892576 11.03124403 33.58862585 11.31092315 44.67089844 11.26074219 C47.52299741 11.24991268 50.37448122 11.26075291 53.2265625 11.2734375 C55.05729304 11.27211755 56.88802321 11.26955857 58.71875 11.265625 C59.98446838 11.27169769 59.98446838 11.27169769 61.27575684 11.27789307 C65.93593522 11.24094874 69.60063581 10.70837219 74 9 C76.28359965 8.57865246 78.57619294 8.20340101 80.875 7.875 C82.02742188 7.70742188 83.17984375 7.53984375 84.3671875 7.3671875 C85.23601562 7.24601562 86.10484375 7.12484375 87 7 C87 6.34 87 5.68 87 5 C88.423125 4.5978125 88.423125 4.5978125 89.875 4.1875 C93.25267273 3.25013412 93.25267273 3.25013412 95 0 C95.99 0.33 96.98 0.66 98 1 C98.55061908 14.74508376 98.55061908 14.74508376 95 20 C94.67 20.66 94.34 21.32 94 22 C93.175 21.9175 92.35 21.835 91.5 21.75 C88.1157495 21.99173218 86.91187528 22.42256807 84.0625 24 C80.11818817 26.15835175 77.44781323 26.3706511 73 26 C73 26.66 73 27.32 73 28 C68.47942904 29.13702786 64.04660217 29.12814634 59.41796875 29.09765625 C58.19670036 29.09553383 58.19670036 29.09553383 56.95075989 29.09336853 C54.36296844 29.08779317 51.77526508 29.07524524 49.1875 29.0625 C47.42773563 29.05748181 45.66796989 29.05291946 43.90820312 29.04882812 C39.60543506 29.03783181 35.30273244 29.02058421 31 29 C31 28.34 31 27.68 31 27 C29.948125 27.0825 28.89625 27.165 27.8125 27.25 C22.59616754 27.27779573 18.05389767 25.57443602 13.14453125 23.95703125 C9.38622664 22.81319941 5.90558814 22.30632064 2 22 C1.814375 21.13375 1.814375 21.13375 1.625 20.25 C1.10987815 18.01217519 1.10987815 18.01217519 -0.02734375 16.27734375 C-1.33797518 13.20867658 -1.22844208 10.63625253 -1.1875 7.3125 C-1.18105469 6.15363281 -1.17460938 4.99476562 -1.16796875 3.80078125 C-1 1 -1 1 0 0 Z " fill="#3DD784" transform="translate(37,44)"/>
<path d="M0 0 C1.39973958 1.20442708 2.79947917 2.40885417 4.19921875 3.61328125 C8.83559182 7.18359023 13.08366863 8.68426924 18.8125 9.6875 C19.50537109 9.81705078 20.19824219 9.94660156 20.91210938 10.08007812 C22.60644764 10.39557559 24.30302158 10.69902647 26 11 C26 11.66 26 12.32 26 13 C49.29059624 13.61296363 49.29059624 13.61296363 72.4375 11.375 C73.36884766 11.23481445 74.30019531 11.09462891 75.25976562 10.95019531 C81.22411718 9.85883661 85.7187938 7.72962904 90.79321289 4.42431641 C92.81221008 3.12120438 94.83183925 2.03016217 97 1 C98.85290352 2.85290352 98.21658627 5.76624631 98.25 8.25 C98.27578125 9.38953125 98.3015625 10.5290625 98.328125 11.703125 C97.96061708 15.39570457 97.31265897 17.11784257 95 20 C81.39012738 29.24363806 64.972762 30.23407358 49.0625 30.25 C48.36847076 30.25100708 47.67444153 30.25201416 46.9593811 30.25305176 C31.06049145 30.23741886 13.97513669 29.38010935 1 19 C-1.44782498 15.41598322 -1.23590163 12.05864315 -1.1875 7.8125 C-1.18105469 6.56082031 -1.17460938 5.30914062 -1.16796875 4.01953125 C-1 1 -1 1 0 0 Z " fill="#3FD986" transform="translate(37,104)"/>
<path d="M0 0 C6.70891271 0.45484154 12.50209559 2.00860139 18.890625 4.078125 C22.63166139 5.18727649 26.11932458 5.6956333 30 6 C30 6.66 30 7.32 30 8 C43.86 7.67 57.72 7.34 72 7 C72 6.34 72 5.68 72 5 C72.99580078 4.83564453 72.99580078 4.83564453 74.01171875 4.66796875 C79.57036784 3.72676834 79.57036784 3.72676834 84.625 1.375 C88.14105315 -0.66060972 90.97948808 -0.20443281 95 0 C96.84355058 3.11099161 97.63152333 5.39129525 97 9 C92.89189189 13 92.89189189 13 90 13 C90 13.66 90 14.32 90 15 C86.7 15.66 83.4 16.32 80 17 C80 17.66 80 18.32 80 19 C63.02232773 25.09356634 36.12717368 26.47026561 19 20 C16.34342791 19.2860766 13.67437386 18.64553852 11 18 C11 17.34 11 16.68 11 16 C10.154375 15.773125 9.30875 15.54625 8.4375 15.3125 C4.32595149 13.74263602 1.49606516 11.65700952 -2 9 C-1.125 2.25 -1.125 2.25 0 0 Z " fill="#229F5D" transform="translate(38,65)"/>
<path d="M0 0 C2.5 2.0625 2.5 2.0625 5 5 C5.3125 8.8125 5.3125 8.8125 5 12 C4.4121875 12.11472656 3.824375 12.22945312 3.21875 12.34765625 C0.84966448 13.04420076 -0.55026956 13.94418373 -2.5 15.4375 C-18.7647279 27.82087238 -47.76128488 25.42703791 -67 23 C-67 22.34 -67 21.68 -67 21 C-67.71285156 20.96261719 -68.42570312 20.92523438 -69.16015625 20.88671875 C-78.47696722 20.24720683 -86.35620987 17.97597963 -93 11 C-93.33 11 -93.66 11 -94 11 C-94.36923077 5.58461538 -94.36923077 5.58461538 -92.5 2.625 C-92.005 2.08875 -91.51 1.5525 -91 1 C-86.06945022 1.52452657 -81.76554994 2.66228592 -77.08984375 4.30078125 C-74.75373225 5.08239613 -72.43124594 5.60786356 -70 6 C-70 6.66 -70 7.32 -70 8 C-63.37972837 8.02534939 -56.75946924 8.04286664 -50.13916016 8.05493164 C-47.88687675 8.05996123 -45.63459661 8.06678566 -43.38232422 8.07543945 C-40.14549961 8.08756506 -36.90871817 8.09324206 -33.671875 8.09765625 C-32.66445251 8.10281754 -31.65703003 8.10797882 -30.61907959 8.11329651 C-29.20806976 8.11340981 -29.20806976 8.11340981 -27.76855469 8.11352539 C-26.94248718 8.115746 -26.11641968 8.11796661 -25.26531982 8.12025452 C-23.04012579 8.00213008 -21.1506681 7.55180144 -19 7 C-16.66699067 6.96111651 -14.33290199 6.9551365 -12 7 C-12 6.34 -12 5.68 -12 5 C-8.04 3.35 -4.08 1.7 0 0 Z " fill="#229F5D" transform="translate(130,94)"/>
<path d="M0 0 C0.33 0 0.66 0 1 0 C1.05391993 1.79133978 1.09275571 3.58313899 1.125 5.375 C1.14820313 6.37273438 1.17140625 7.37046875 1.1953125 8.3984375 C1 11 1 11 -1 13 C-1.33 11.35 -1.66 9.7 -2 8 C-1.34 8 -0.68 8 0 8 C0 5.36 0 2.72 0 0 Z " fill="#32DF8B" transform="translate(38,48)"/>
</svg>
